<svg id="Layer_1" data-name="Layer 1" xmlns="http://www.w3.org/2000/svg" viewBox="0 0 1731.02 228.47"><title>JunctionX_logo</title><path d="M780.15,176.8a24.77,24.77,0,0,1-24.78,24.77H655.82a24.77,24.77,0,0,1-24.77-24.77V53a24.77,24.77,0,0,1,24.77-24.78h99.55A24.77,24.77,0,0,1,780.15,53V77.43H751.9V53.13H660V177.27H751.9v-25h28.25Z"/><path d="M1063.24,201.57H1035V28.17h28.24Z"/><path d="M1250.62,201.57h-98.89A24.77,24.77,0,0,1,1127,176.8V53a24.77,24.77,0,0,1,24.78-24.78h98.89A24.77,24.77,0,0,1,1275.39,53V176.8A24.77,24.77,0,0,1,1250.62,201.57Zm-3.47-24.3V53.13h-92V177.27Z"/><path d="M110.19,28.17v149.1h-67v-25H15v24.63a23.6,23.6,0,0,0,7.41,17.24,23.71,23.71,0,0,0,17.29,7.39h74.07q9.87,0,17.65-8.84,7-8.14,7.06-15.93V28.17Z"/><path d="M325,28.17V176.61H233V28.17H204.77V176.8a24.75,24.75,0,0,0,24.74,24.77h123.7V28.17Z"/><polygon points="972.59 28.17 841.9 28.17 838.61 28.17 838.61 53.13 841.93 53.13 841.93 53.13 893.12 53.13 893.12 201.57 921.37 201.57 921.37 53.13 972.59 53.13 972.59 53.13 975.88 53.13 975.88 28.17 972.59 28.17"/><polygon points="539.09 28.17 539.09 156.91 539.09 174.64 535.55 174.64 468.75 27.51 447.18 27.51 418.89 27.51 418.89 94.4 418.89 201.57 447.14 201.57 447.14 94.4 447.14 72.17 447.14 54.44 450.67 54.44 517.73 201.57 539.09 201.57 567.34 201.57 567.34 28.17 539.09 28.17"/><polygon points="1459.96 28.17 1459.96 156.91 1459.96 174.64 1456.42 174.64 1389.61 27.51 1368.05 27.51 1339.76 27.51 1339.76 94.4 1339.76 201.57 1368.01 201.57 1368.01 94.4 1368.01 72.17 1368.01 54.44 1371.54 54.44 1438.6 201.57 1459.96 201.57 1488.21 201.57 1488.21 28.17 1459.96 28.17"/><path d="M1716.07,61.08,1681.9,26.9l-53,53-53-53-34.17,34.18,53,53-53,53,34.17,34.18,53-53,20.62-20.62,7.1-7.1,46.05,46.05-7.1,7.1-46-46-7.06,7.06,46,46.05-7.09,7.1-46-46-6.46,6.46,53,53,34.17-34.18-53-53ZM1576.35,40.35,1622.4,86.4l-7.1,7.09-46-46Zm-21.26,21.26,7.1-7.1,46,46.05-7.1,7.1Zm0,105L1681.37,40.35l7.09,7.09L1562.19,173.72Zm21.26,21.26-7.1-7.1L1695.53,54.51l7.1,7.1Z"/></svg>